<svg xmlns="http://www.w3.org/2000/svg" viewBox="0 0 24 24" fill="#5555ff">
  <path d="M6.763 10.036c0 .296.032.535.088.71.064.176.144.368.256.576.04.072.056.144.056.208 0 .09-.056.184-.176.272l-.583.384c-.08.056-.16.08-.232.08-.09 0-.184-.04-.272-.12a2.762 2.762 0 0 1-.327-.432c-.088-.152-.183-.328-.272-.543a4.92 4.92 0 0 1-1.175 1.39c-.407.32-.872.487-1.39.487-.67 0-1.205-.19-1.6-.567-.39-.375-.583-.872-.583-1.487 0-.36.08-.703.24-1.022.16-.32.375-.6.664-.832.28-.224.607-.384.99-.48.376-.096.784-.144 1.224-.144h.272v-.232c0-.455-.104-.784-.295-1.005-.193-.224-.504-.336-.938-.336a3.09 3.09 0 0 0-.847.12 5.74 5.74 0 0 0-.83.303c-.072.032-.12.056-.16.064-.04.007-.072.016-.1.016-.088 0-.135-.064-.135-.2v-.375c0-.08.008-.136.032-.176.024-.04.072-.08.144-.12.256-.127.568-.24.927-.336a4.408 4.408 0 0 1 1.16-.151c.863 0 1.494.2 1.895.6.399.4.6.998.6 1.79v2.355zm-2.51.663c.264 0 .535-.056.823-.168.287-.112.544-.32.76-.616.128-.168.224-.352.272-.56.048-.208.072-.456.072-.744v-.36h-.392c-.44 0-.815.04-1.126.12-.31.082-.568.208-.768.392-.2.18-.296.424-.296.72 0 .287.072.504.224.655.152.152.36.232.63.232v.329zm6.735.888c-.1 0-.16-.016-.2-.056-.04-.032-.072-.104-.104-.2l-1.167-3.83c-.032-.104-.048-.176-.048-.224 0-.087.044-.136.135-.136h.552c.1 0 .168.016.208.056.04.032.072.104.096.2l.832 3.271.775-3.271c.024-.104.056-.168.096-.2.04-.04.112-.056.2-.056h.448c.1 0 .168.016.208.056.04.032.072.104.088.2l.784 3.31.856-3.31c.024-.104.064-.168.096-.2.04-.04.104-.056.2-.056h.527c.088 0 .136.044.136.136 0 .024-.008.048-.016.08a.75.75 0 0 1-.04.152l-1.19 3.83c-.032.104-.064.168-.104.2-.04.04-.104.056-.2.056h-.48c-.1 0-.168-.016-.208-.056-.04-.04-.072-.104-.096-.208l-.775-3.216-.775 3.208c-.024.104-.056.168-.096.208-.04.04-.112.056-.208.056h-.48zm6.287.143c-.288 0-.575-.032-.855-.096a3.92 3.92 0 0 1-.72-.24c-.112-.056-.184-.12-.208-.176a.43.43 0 0 1-.032-.167v-.39c0-.136.05-.2.144-.2.04 0 .08.008.12.024.04.016.096.04.16.072.216.096.448.168.696.216.248.048.488.072.736.072.376 0 .664-.064.872-.2.2-.136.303-.32.303-.551 0-.168-.056-.304-.168-.416-.112-.112-.336-.215-.664-.303l-.956-.296c-.48-.152-.832-.368-1.056-.655a1.543 1.543 0 0 1-.34-.96c0-.286.063-.54.2-.767.132-.224.31-.416.535-.575.224-.16.48-.28.767-.36a3.44 3.44 0 0 1 .936-.12c.16 0 .328.008.496.032.168.024.32.056.464.088.136.04.264.08.376.128.112.048.2.096.256.144.088.056.152.12.184.184.032.064.048.136.048.224v.36c0 .136-.05.208-.144.208-.052 0-.128-.024-.232-.072-.352-.16-.744-.24-1.175-.24-.344 0-.607.056-.784.175-.183.12-.272.296-.272.527 0 .168.064.31.192.43.127.12.359.232.695.336l.936.296c.48.152.824.368 1.03.647.208.28.312.6.312.953 0 .296-.064.56-.192.8-.128.232-.304.44-.527.607-.224.168-.487.296-.784.384a3.417 3.417 0 0 1-.975.135zm3.343 1.87c-2.503 1.855-6.135 2.84-9.263 2.84-4.38 0-8.326-1.615-11.302-4.305-.236-.208-.024-.496.256-.335 3.22 1.87 7.192 2.994 11.302 2.994 2.766 0 5.807-.574 8.606-1.762.424-.184.784.28.401.568zm1.143-1.295c-.32-.41-2.119-.192-2.927-.096-.248.032-.288-.184-.063-.336 1.43-1.006 3.775-.72 4.047-.38.28.343-.072 2.69-1.415 3.815-.208.176-.407.08-.312-.147.296-.75.975-2.431.67-2.856z"/>
</svg>
