<svg xmlns="http://www.w3.org/2000/svg" viewBox="0 0 24 24" fill="#5555ff">
  <path d="M11.914 0C5.82 0 6.2 2.656 6.2 2.656l.007 2.752h5.814v.826H3.89S0 5.789 0 11.969c0 6.18 3.403 5.963 3.403 5.963h2.031v-2.867s-.109-3.402 3.35-3.402h5.769s3.24.052 3.24-3.131V3.181S18.28 0 11.914 0zm-3.21 1.818a1.047 1.047 0 0 1 1.048 1.047 1.047 1.047 0 0 1-1.047 1.047A1.047 1.047 0 0 1 7.657 2.865a1.047 1.047 0 0 1 1.047-1.047z"/>
  <path d="M12.086 24c6.094 0 5.714-2.656 5.714-2.656l-.007-2.752H12v-.826h8.131S24 18.211 24 12.031c0-6.18-3.403-5.963-3.403-5.963h-2.031v2.867s.109 3.402-3.35 3.402H9.447s-3.24-.052-3.24 3.131v5.351S5.72 24 12.086 24zm3.21-1.818a1.047 1.047 0 0 1-1.048-1.047 1.047 1.047 0 0 1 1.047-1.047 1.047 1.047 0 0 1 1.048 1.047 1.047 1.047 0 0 1-1.047 1.047z"/>
</svg>
