<svg xmlns="http://www.w3.org/2000/svg" viewBox="0 0 64 64">
  <defs>
    <!-- Outer contour of the toolbox (first closed subpath of potrace path 1) -->
    <clipPath id="toolbox-clip">
      <path transform="translate(0,64) scale(0.0125,-0.0125)"
        d="M1875 5051 c-86 -22 -169 -92 -206 -175 -16 -37 -22 -76 -26 -167
l-6 -118 -482 -3 -482 -3 -48 -30 c-57 -35 -110 -100 -125 -153 -6 -24 -10
-406 -10 -1124 l0 -1086 -43 -25 c-56 -33 -112 -96 -140 -155 l-22 -47 0 -830
0 -830 28 -56 c32 -66 99 -132 165 -162 l47 -22 2035 0 2035 0 56 28 c66 32
132 99 162 165 22 47 22 47 22 877 l0 830 -28 57 c-35 71 -111 141 -177 163
l-50 16 -2 1092 c-3 1026 -4 1094 -21 1132 -25 56 -83 113 -142 141 l-50 24
-471 0 -472 0 -3 123 c-4 109 -7 128 -32 179 -32 64 -80 111 -146 142 -45 21
-58 21 -691 23 -355 1 -658 -2 -675 -6z"/>
    </clipPath>
  </defs>
  <!-- Potrace paths from tool_13598471.png, rescaled 512→64 (factor 0.125).
       Original potrace transform: translate(0,512) scale(0.1,-0.1)
       Combined for 64px target:   translate(0,64)  scale(0.0125,-0.0125) -->
  <g transform="translate(0,64) scale(0.0125,-0.0125)" fill="#5555ff" stroke="none">
    <path d="M1875 5051 c-86 -22 -169 -92 -206 -175 -16 -37 -22 -76 -26 -167
l-6 -118 -482 -3 -482 -3 -48 -30 c-57 -35 -110 -100 -125 -153 -6 -24 -10
-406 -10 -1124 l0 -1086 -43 -25 c-56 -33 -112 -96 -140 -155 l-22 -47 0 -830
0 -830 28 -56 c32 -66 99 -132 165 -162 l47 -22 2035 0 2035 0 56 28 c66 32
132 99 162 165 22 47 22 47 22 877 l0 830 -28 57 c-35 71 -111 141 -177 163
l-50 16 -2 1092 c-3 1026 -4 1094 -21 1132 -25 56 -83 113 -142 141 l-50 24
-471 0 -472 0 -3 123 c-4 109 -7 128 -32 179 -32 64 -80 111 -146 142 -45 21
-58 21 -691 23 -355 1 -658 -2 -675 -6z m1328 -135 c22 -11 51 -37 65 -59 24
-37 27 -51 31 -154 l3 -113 -766 0 -766 0 0 105 c0 115 11 155 53 193 55 51
56 52 722 49 587 -2 622 -3 658 -21z m1177 -469 c19 -12 43 -38 54 -57 21 -35
21 -46 24 -1107 l2 -1073 -120 0 -120 0 0 918 0 918 -22 44 c-13 24 -40 58
-61 74 l-39 31 -1555 3 -1556 2 -43 -25 c-27 -16 -54 -44 -71 -73 l-28 -47 -3
-922 -3 -923 -114 0 -115 0 2 1083 3 1082 22 31 c49 69 -106 64 1899 64 l1811
0 33 -23z m-305 -392 l25 -24 0 -911 0 -910 -210 0 -210 0 0 143 0 143 85 139
c67 110 85 148 85 178 0 34 -133 504 -167 589 -24 60 -52 72 -177 76 -122 5
-171 -5 -205 -42 -27 -29 -180 -546 -181 -609 0 -45 10 -66 96 -198 l64 -99 0
-160 0 -160 -560 0 -560 0 0 260 0 260 35 0 c22 0 43 8 55 20 39 39 320 22
410 -25 17 -9 56 -38 86 -66 56 -51 76 -55 112 -27 31 26 1 183 -55 292 -44
85 -162 208 -243 253 -64 36 -163 69 -237 78 -40 5 -54 11 -58 26 -4 11 -18
24 -32 30 -13 5 -143 9 -289 9 -251 0 -265 -1 -284 -20 -11 -11 -20 -24 -20
-30 0 -6 -34 -10 -82 -10 l-83 0 -15 33 -15 32 -142 0 c-141 0 -141 0 -185
-30 -28 -20 -53 -49 -70 -84 -26 -51 -28 -63 -28 -179 0 -144 10 -187 57 -241
43 -51 94 -68 221 -75 118 -6 149 2 165 44 11 30 11 30 94 30 66 0 83 -3 83
-14 0 -22 40 -46 77 -46 l33 0 0 -260 0 -260 -390 0 -390 0 0 912 0 912 22 23
21 23 1519 0 1519 0 24 -25z m-458 -845 c23 -80 59 -201 79 -270 l36 -126 -86
-139 -86 -139 0 -163 0 -163 -80 0 -80 0 0 178 0 179 -82 127 -81 128 74 262
c85 298 69 276 198 273 l65 -2 43 -145z m-2267 -185 l0 -185 -71 0 c-119 0
-139 25 -139 179 0 162 20 190 138 191 l72 0 0 -185z m778 169 c22 -6 22 -9
22 -175 l0 -169 -195 0 -195 0 0 175 0 175 173 0 c94 0 182 -3 195 -6z m286
-86 c111 -36 217 -124 275 -228 22 -40 22 -43 5 -36 -49 20 -172 46 -213 46
-25 0 -83 3 -128 7 l-83 6 0 119 0 118 43 -6 c23 -4 68 -15 101 -26z m-776
-85 l-3 -108 -82 -3 -83 -3 0 111 0 110 85 0 86 0 -3 -107z m392 -553 l0 -260
-80 0 -80 0 0 260 0 260 80 0 80 0 0 -260z m2575 -406 c46 -25 65 -45 91 -94
18 -33 19 -75 22 -804 2 -542 -1 -786 -9 -824 -14 -71 -73 -133 -141 -150 -67
-17 -3949 -17 -4016 0 -68 17 -127 79 -141 150 -8 38 -11 282 -9 824 3 729 4
771 22 804 34 63 73 94 141 111 17 4 923 6 2015 6 l1985 -2 40 -21z"/>
    <path d="M1672 1733 c-62 -22 -135 -97 -157 -162 -21 -65 -17 -159 10 -215 24
-49 74 -99 128 -128 l42 -23 865 0 865 0 42 23 c93 49 144 127 151 229 8 115
-46 213 -144 263 l-49 25 -855 2 c-743 1 -861 0 -898 -14z m1743 -123 c78 -38
109 -142 63 -210 -13 -18 -36 -43 -51 -54 -28 -21 -32 -21 -867 -21 -835 0
-839 0 -867 21 -15 11 -38 36 -50 54 -47 68 -17 171 61 210 40 20 59 20 855
20 794 0 816 -1 856 -20z"/>
  </g>
</svg>
