<svg xmlns="http://www.w3.org/2000/svg" viewBox="0 0 293.57495 293.80619">
  <defs>
    <mask id="t">
      <rect width="100%" height="100%" fill="white"/>
      <path fill="black" d="M171.72514,48.968207 180.22123,57.534607 121.61576,117.00727V57.534607H127.30326L135.79936,48.968207V26.358827L127.30326,17.792417H32.83842L24.34233,26.358827V48.968207L32.83842,57.534607H39.46341V250.28071L49.8306,258.7768H79.135285L282.24467,48.968207V26.358827L273.74858,17.792417H181.15873L171.72514,26.358827Z"/>
      <path fill="black" d="M157.11186,153.94477 163.73295,148.25727H180.72514L185.47904,153.94477 179.79154,170.93696 173.23686,176.62446H156.24467L151.42045,170.93696Z"/>
      <path fill="black" d="M162.79936,247.47211 179.86186,196.49555H174.17436L179.86186,179.43305H205.27983L210.96733,185.12055H214.78373L220.39701,179.43305H239.33451L245.02201,185.12055H246.7642L252.45561,179.43305H275.18998L282.74858,190.80805 270.36576,231.12836H275.98295L270.51029,247.47211H236.45561L249.77201,207.80024H241.27983L233.42826,230.98383H239.04545L233.71733,247.47211H199.66264L212.90873,207.80024H204.41264L196.49467,231.12836H202.18217L196.85404,247.47211Z"/>
      <path fill="black" d="M176.98295,179.43305 159.63139,231.05414H165.53373L159.91654,247.47211H125.93217L142.92436,196.49555H137.23686ZM137.23686,196.49555 142.92436,179.43305H176.98295"/>
    </mask>
  </defs>
  <g fill="#5555ff" mask="url(#t)">
    <path d="M286.99858,145.37446 145.22904,6.4877374 6.3423305,148.18305 145.22904,287.14399Z"/>
    <path d="M272.81498,145.37446H281.31108L145.22904,281.45649V272.96039Z"/>
    <path d="M12.02983,148.18305H20.52592L145.22904,272.96039V281.45649Z"/>
    <path d="M145.22904,20.601017V12.175237L12.02983,148.18305H20.52592Z"/>
    <path d="M145.22904,12.175237V20.601017L272.81498,145.37446H281.31108Z"/>
    <path d="M145.22904,272.96039 272.81498,145.37446 145.22904,20.601017 20.52592,148.18305Z"/>
  </g>
</svg>
