<?xml version="1.0" encoding="UTF-8" standalone="no"?>
<svg
 width="293.57495"
 height="293.80618"
 viewBox="0 0 293.57495 293.80619"
 version="1.1"
 id="svg90"
 xmlns="http://www.w3.org/2000/svg"
 >
 <defs
 id="defs94" />
 <path
 fill-rule="evenodd"
 fill="#5555ff"
 fill-opacity="1"
 d="M 286.99858,145.37446 145.22904,6.4877374 6.3423305,148.18305 145.22904,287.14399 286.99858,145.37446"
 id="path2" />
 <path
 fill-rule="evenodd"
 fill="#5555ff"
 fill-opacity="1"
 d="M 272.81498,145.37446 H 281.31108 L 145.22904,281.45649 V 272.96039 L 272.81498,145.37446"
 id="path6" />
 <path
 fill-rule="evenodd"
 fill="#5555ff"
 fill-opacity="1"
 d="M 12.02983,148.18305 H 20.52592 L 145.22904,272.96039 V 281.45649 L 12.02983,148.18305"
 id="path10" />
 <path
 fill-rule="evenodd"
 fill="#5555ff"
 fill-opacity="1"
 d="M 145.22904,20.601017 V 12.175237 L 12.02983,148.18305 H 20.52592 L 145.22904,20.601017"
 id="path14" />
 <path
 fill-rule="evenodd"
 fill="#5555ff"
 fill-opacity="1"
 d="M 145.22904,12.175237 V 20.601017 L 272.81498,145.37446 H 281.31108 L 145.22904,12.175237"
 id="path18" />
 <path
 fill-rule="evenodd"
 fill="#5555ff"
 fill-opacity="1"
 d="M 145.22904,272.96039 272.81498,145.37446 145.22904,20.601017 20.52592,148.18305 145.22904,272.96039"
 id="path22" />
 <path
 fill-rule="evenodd"
 fill="#5555ff"
 fill-opacity="1"
 d="M 171.72514,48.968207 180.22123,57.534607 121.61576,117.00727 V 57.534607 H 127.30326 L 135.79936,48.968207 V 26.358827 L 127.30326,17.792417 H 32.83842 L 24.34233,26.358827 V 48.968207 L 32.83842,57.534607 H 39.46341 V 250.28071 L 49.8306,258.7768 H 79.135285 L 282.24467,48.968207 V 26.358827 L 273.74858,17.792417 H 181.15873 L 171.72514,26.358827 V 48.968207"
 id="path26" />
 <path
 fill-rule="evenodd"
 fill="#5555ff"
 fill-opacity="1"
 d="M 157.11186,153.94477 163.73295,148.25727 H 180.72514 L 185.47904,153.94477 179.79154,170.93696 173.23686,176.62446 H 156.24467 L 151.42045,170.93696 157.11186,153.94477"
 id="path66" />
 <path
 fill-rule="evenodd"
 fill="#5555ff"
 fill-opacity="1"
 d="M 162.79936,247.47211 179.86186,196.49555 H 174.17436 L 179.86186,179.43305 H 205.27983 L 210.96733,185.12055 H 214.78373 L 220.39701,179.43305 H 239.33451 L 245.02201,185.12055 H 246.7642 L 252.45561,179.43305 H 275.18998 L 282.74858,190.80805 270.36576,231.12836 H 275.98295 L 270.51029,247.47211 H 236.45561 L 249.77201,207.80024 H 241.27983 L 233.42826,230.98383 H 239.04545 L 233.71733,247.47211 H 199.66264 L 212.90873,207.80024 H 204.41264 L 196.49467,231.12836 H 202.18217 L 196.85404,247.47211 H 162.79936"
 id="path70"
 />
 <path
 fill-rule="evenodd"
 fill="#5555ff"
 fill-opacity="1"
 d="M 176.98295,179.43305 159.63139,231.05414 H 165.53373 L 159.91654,247.47211 H 125.93217 L 142.92436,196.49555 H 137.23686 Z M 137.23686,196.49555 142.92436,179.43305 H 176.98295"
 id="path78" />
 <metadata
 id="metadata22224">
 <rdf:RDF>
 <cc:Work
 rdf:about="">
 <cc:license
 rdf:resource="https://raw.githubusercontent.com/vim/vim/master/LICENSE" />
 </cc:Work>
 </rdf:RDF>
 </metadata>
</svg>
